<svg xmlns="http://www.w3.org/2000/svg" version="1.1" viewBox="164.16 308.47 648.22 374.07">
<path d="M0 0 C0.92451462 -0.00686325 1.84902924 -0.0137265 2.80155945 -0.02079773 C5.84190453 -0.03902151 8.88173143 -0.03523452 11.92211914 -0.02954102 C14.04529487 -0.03410489 16.16846912 -0.03941108 18.29164124 -0.04542542 C22.73582979 -0.05434782 27.17983855 -0.05194318 31.62402344 -0.04199219 C37.30787406 -0.03050309 42.99110337 -0.05071792 48.6748724 -0.07990932 C53.05790624 -0.0982904 57.44079172 -0.09797504 61.82385445 -0.0922718 C63.91893956 -0.09211883 66.01403487 -0.09814354 68.10908318 -0.11056328 C71.04316623 -0.12550748 73.97610793 -0.11477077 76.91015625 -0.09765625 C77.76806763 -0.10732422 78.625979 -0.11699219 79.5098877 -0.12695312 C85.30330813 -0.05649743 89.66325947 1.18046306 94.51977539 4.40405273 C101.44771157 11.52443158 104.74817293 21.37567447 108.26977539 30.46655273 C110.73102692 36.71416636 113.58846005 42.66778636 116.65258789 48.64624023 C120.80783708 56.87211939 124.38304011 65.40521677 128.00415039 73.87670898 C129.44267373 77.22461253 130.91599674 80.55454521 132.3996582 83.88256836 C133.64363332 86.68286806 134.87554972 89.48828352 136.10571289 92.29467773 C136.56204102 93.33495117 137.01836914 94.37522461 137.48852539 95.44702148 C138.41901906 97.569064 139.34871893 99.69145479 140.27758789 101.81420898 C143.60175959 109.38697091 147.03505154 116.9039817 150.51977539 124.40405273 C152.58350681 128.86181663 154.64525812 133.32049574 156.70727539 137.77905273 C157.48748047 139.46321289 157.48748047 139.46321289 158.28344727 141.18139648 C160.76985344 146.56067114 163.21033405 151.94666519 165.51977539 157.40405273 C166.22550098 158.94691488 166.93344357 160.48876729 167.64477539 162.02905273 C169.03767471 165.13915236 170.08015933 167.99702823 170.51977539 171.40405273 C173.22790195 170.04998945 173.30117185 168.77905217 174.33227539 165.96655273 C176.05718536 161.46119088 178.05043514 157.20242234 180.27368164 152.92358398 C182.93957272 147.53330265 185.09925654 141.94466179 187.26977539 136.34155273 C189.76767169 129.99325996 192.68488719 123.94678509 195.79711914 117.87280273 C198.07942291 113.27714344 200.06233792 108.57778704 202.05102539 103.84936523 C203.96907728 99.35010522 206.02211135 94.91981419 208.08618164 90.48608398 C209.413549 87.632425 210.72118922 84.77089952 212.01977539 81.90405273 C213.76086603 78.06155678 215.52540232 74.23070164 217.30102539 70.40405273 C220.44304857 63.60082262 223.49097672 56.75828722 226.51977539 49.90405273 C230.43997385 41.03256195 234.42802648 32.1978256 238.51977539 23.40405273 C238.89102539 22.5990332 239.26227539 21.79401367 239.64477539 20.96459961 C240.58644847 18.93595625 241.54929331 16.91903671 242.51977539 14.90405273 C242.82399414 14.24147461 243.12821289 13.57889648 243.44165039 12.89624023 C246.34611852 6.92065416 250.30762968 3.05233485 256.51977539 0.40405273 C258.49447441 0.14957714 258.49447441 0.14957714 260.60494995 0.14335632 C261.40953644 0.13627151 262.21412292 0.12918671 263.04309082 0.12188721 C263.91695435 0.12436462 264.79081787 0.12684204 265.69116211 0.12939453 C266.61845123 0.1242836 267.54574036 0.11917267 268.50112915 0.11390686 C271.56730601 0.10000395 274.63325825 0.1009683 277.69946289 0.10327148 C279.83171675 0.09938467 281.96396984 0.09505004 284.09622192 0.09028625 C288.56669626 0.08282234 293.03709162 0.08311639 297.50756836 0.08837891 C303.23307089 0.09417086 308.95824965 0.07724982 314.68369865 0.05403423 C319.08808275 0.03929281 323.49238897 0.03842581 327.89679337 0.04154396 C330.0074846 0.04103086 332.1181802 0.03579526 334.2288475 0.02573204 C337.1826446 0.01337855 340.13581238 0.02015324 343.08959961 0.03173828 C343.95941467 0.02409454 344.82922974 0.01645081 345.72540283 0.00857544 C351.95240755 0.06248404 356.27402589 1.14996093 360.82006836 5.71289062 C362.74404382 8.75913904 363.26037587 10.9012828 363.71508789 14.46264648 C363.87251465 15.6425415 364.02994141 16.82243652 364.19213867 18.03808594 C364.34150879 19.29322998 364.49087891 20.54837402 364.64477539 21.84155273 C364.89396729 23.78324341 364.89396729 23.78324341 365.14819336 25.76416016 C366.34889617 35.33967655 367.2888998 44.92862831 368.09008789 54.54467773 C368.45654616 58.8712495 368.9577982 63.16094286 369.51977539 67.46655273 C370.36735455 73.9798726 371.02427441 80.49365991 371.62475586 87.03393555 C372.54641972 96.93695722 373.59862934 106.8260707 374.64477539 116.71655273 C374.73708435 117.58967102 374.82939331 118.46278931 374.92449951 119.36236572 C375.45485727 124.37641063 375.98670242 129.3902958 376.51977539 134.40405273 C385.00412353 134.52016415 393.4881369 134.60887697 401.97308445 134.66311359 C405.91349516 134.6891514 409.85336028 134.72444087 413.79345703 134.78125 C417.59956624 134.83578066 421.40515238 134.86551699 425.21162224 134.87843895 C426.66007656 134.88764141 428.10850389 134.90561209 429.55673409 134.93270302 C438.5936815 135.32383634 438.5936815 135.32383634 446.83984375 132.18603516 C450.60722244 128.27519611 451.77093653 124.94697866 451.76460266 119.56669617 C451.76854034 118.62058472 451.77247803 117.67447327 451.77653503 116.69969177 C451.77084 115.67360306 451.76514496 114.64751434 451.75927734 113.59033203 C451.7612915 112.50029877 451.76330566 111.4102655 451.76538086 110.28720093 C451.76892374 107.92239829 451.76816252 105.55758617 451.76360512 103.19278526 C451.75801042 99.44732628 451.76717373 95.70217681 451.7808075 91.95674133 C451.81792828 81.30837092 451.83675308 70.66014198 451.82519531 60.01171875 C451.81829756 53.49598573 451.83763316 46.9805953 451.87108421 40.46494484 C451.87903097 37.98471098 451.87777117 35.50442962 451.86705971 33.02420616 C451.85270632 29.55097677 451.8690332 26.07911147 451.89208984 22.60595703 C451.88032211 21.58594101 451.86855438 20.56592499 451.85643005 19.51499939 C451.93990726 13.08732269 452.84115474 8.08840575 457.51977539 3.40405273 C462.98775013 -0.14856222 469.26076467 -0.02657305 475.57250977 0.01586914 C476.54593826 0.01061218 477.51936676 0.00535522 478.52229309 -0.00006104 C481.71953685 -0.0131958 484.91627713 -0.00454594 488.11352539 0.00561523 C490.34737238 0.00359263 492.58121873 0.00067964 494.81506348 -0.00308228 C499.48867095 -0.0074968 504.16210599 -0.00110251 508.83569336 0.01293945 C514.81424435 0.03003062 520.79239125 0.02018479 526.77092743 0.00222206 C531.38127668 -0.00863922 535.99153076 -0.00515864 540.60188293 0.00260544 C542.80581206 0.00460095 545.00974993 0.00217105 547.21366882 -0.00483322 C550.29835773 -0.01248618 553.38240003 -0.00078933 556.46704102 0.01586914 C557.82168205 0.0067601 557.82168205 0.0067601 559.20368958 -0.00253296 C565.60074976 0.06118769 571.52663643 0.85392105 576.57836914 5.15795898 C577.0334082 5.75479492 577.48844727 6.35163086 577.95727539 6.96655273 C578.43036133 7.5659668 578.90344727 8.16538086 579.39086914 8.78295898 C581.71866135 12.12563638 581.65499323 14.44801842 581.67799377 18.50183105 C581.69267889 20.46393776 581.69267889 20.46393776 581.70766068 22.46568298 C581.71357278 23.93016521 581.71938139 25.39464786 581.72509766 26.85913086 C581.73467705 28.40271764 581.74467631 29.94630186 581.7550621 31.48988342 C581.78232276 35.73960614 581.80325054 39.98934012 581.82304788 44.23910332 C581.84072268 47.86752167 581.86198357 51.49591531 581.8832981 55.12431383 C581.95315788 67.01769979 582.01124181 78.91113137 582.06746864 90.80458832 C582.08712299 94.9187907 582.10757717 99.03298893 582.12806618 103.14718723 C582.27590062 132.85015802 582.39890646 162.55319618 582.50811863 192.2563324 C582.51967364 195.37657745 582.53145943 198.49682155 582.54332733 201.61706543 C582.63159643 224.8526922 582.70775251 248.08826821 582.74277973 271.32404327 C582.74549775 273.1245575 582.74821984 274.92507172 582.75094604 276.72558594 C582.75293909 278.05227932 582.75293909 278.05227932 582.7549724 279.40577459 C582.76502816 285.62812659 582.78268187 291.85042945 582.80349731 298.07275391 C582.82860934 305.62703771 582.84312761 313.18124896 582.84361404 320.73557615 C582.8440984 324.56820568 582.84924974 328.40067088 582.86737633 332.23326111 C582.88673918 336.36972396 582.8826902 340.505831 582.8762207 344.64233398 C582.88543832 345.84489586 582.89465593 347.04745773 582.90415287 348.28646088 C582.86452753 356.16490561 581.95939762 361.99192158 576.76977539 368.21655273 C576.32118164 368.77987305 575.87258789 369.34319336 575.41040039 369.92358398 C570.09833003 374.08324239 563.08696192 373.70105925 556.67236328 373.69458008 C555.70883438 373.7012973 554.74530548 373.70801453 553.75257874 373.7149353 C550.58247658 373.73385978 547.41258669 373.73783641 544.24243164 373.73999023 C542.02957575 373.74642092 539.8167207 373.75314949 537.60386658 373.76016235 C532.97140532 373.77212045 528.33901857 373.77584457 523.70654297 373.7746582 C517.78059263 373.77445485 511.85512097 373.80178072 505.9292841 373.83620262 C501.36097533 373.85847312 496.79278186 373.86249572 492.22442436 373.86143875 C490.04001653 373.86379356 487.85560546 373.87261024 485.6712513 373.88810349 C482.61268952 373.90777036 479.55516161 373.90192273 476.49658203 373.88989258 C475.6012677 373.90113159 474.70595337 373.91237061 473.7835083 373.9239502 C467.67093306 373.8630711 463.80616052 372.48783911 458.51977539 369.40405273 C458.51977539 368.74405273 458.51977539 368.08405273 458.51977539 367.40405273 C457.59165039 367.09467773 457.59165039 367.09467773 456.64477539 366.77905273 C453.53036834 364.76384817 453.40974432 363.00367853 452.51977539 359.40405273 C452.23443913 355.87243436 452.23938577 352.35393507 452.24853516 348.81225586 C452.24069504 347.23068947 452.24069504 347.23068947 452.23269653 345.61717224 C452.22247536 343.33369938 452.21667942 341.05020335 452.21481514 338.76670837 C452.21114779 335.15193834 452.19441154 331.53744172 452.17405701 327.92272949 C452.11867367 317.6475126 452.08793436 307.37225596 452.06347656 297.09692383 C452.04760363 290.80702503 452.01739016 284.51732149 451.97871208 278.2275238 C451.96706302 275.83216931 451.96113174 273.43677991 451.96103096 271.04139709 C451.96083894 267.69267369 451.94257525 264.34448931 451.92041016 260.99584961 C451.92498734 260.00761703 451.92956451 259.01938446 451.9342804 258.00120544 C451.87949369 252.79546762 451.68855594 248.77044152 448.51977539 244.40405273 C444.99958674 242.35744054 441.83337309 242.13967708 437.81152344 242.08520508 C436.69073898 242.06533539 435.56995453 242.0454657 434.41520691 242.0249939 C433.2160817 242.01344269 432.01695648 242.00189148 430.78149414 241.98999023 C429.54559036 241.97062408 428.30968658 241.95125793 427.03633118 241.93130493 C423.76325573 241.88172718 420.49021439 241.84042445 417.21697998 241.80316162 C413.87184082 241.76303255 410.52689166 241.71181821 407.18188477 241.66186523 C400.62795678 241.56588466 394.07395511 241.48081602 387.51977539 241.40405273 C387.71313477 242.60416992 387.90649414 243.80428711 388.10571289 245.04077148 C389.78098546 255.67295225 391.06485893 266.27497753 392.02368164 276.99389648 C392.52636287 282.59680392 393.12308498 288.18753991 393.73852539 293.77905273 C393.84326172 294.73384521 393.94799805 295.6886377 394.0559082 296.67236328 C394.3760282 299.58305682 394.69763522 302.49358212 395.01977539 305.40405273 C396.28517195 316.83665221 397.53849167 328.27040834 398.67602539 339.71655273 C398.76178833 340.54558105 398.84755127 341.37460937 398.93591309 342.22875977 C399.7921086 351.05038443 400.58894119 359.26572114 396.51977539 367.40405273 C395.85977539 367.40405273 395.19977539 367.40405273 394.51977539 367.40405273 C394.18977539 368.39405273 393.85977539 369.38405273 393.51977539 370.40405273 C387.95217066 373.01528244 383.31838735 373.84598723 377.22705078 373.80810547 C376.04729424 373.81840034 376.04729424 373.81840034 374.84370422 373.8289032 C372.26809146 373.84706389 369.6930941 373.84334927 367.11743164 373.83764648 C365.31196395 373.8422134 363.506498 373.84752049 361.70103455 373.85353088 C357.92610591 373.86244089 354.15138908 373.86006293 350.37646484 373.85009766 C345.55699271 373.83860989 340.73825351 373.85882719 335.9188776 373.88801479 C332.19290075 373.90642695 328.46709793 373.90607438 324.74108696 373.90037727 C322.96501067 373.90022468 321.18892213 373.90621772 319.41288948 373.91866875 C302.3558414 374.02141756 302.3558414 374.02141756 294.51977539 369.40405273 C294.51977539 368.74405273 294.51977539 368.08405273 294.51977539 367.40405273 C293.85977539 367.40405273 293.19977539 367.40405273 292.51977539 367.40405273 C287.04643888 356.70616774 287.07976176 343.79373663 286.01977539 332.02905273 C285.31208105 324.22108436 284.55729943 316.44149309 283.48852539 308.67358398 C282.60870504 302.27899613 281.99652482 295.90212833 281.51977539 289.46655273 C280.89678173 281.52647382 280.09709339 273.66508219 279.04296875 265.77075195 C278.43743983 260.9461394 278.04669024 256.10880892 277.64868164 251.26342773 C276.55378019 238.33647365 275.22418276 225.43663787 273.86035156 212.53564453 C273.4508389 208.65556791 273.04669917 204.77495397 272.64282227 200.89428711 C272.38207392 198.4144358 272.12101815 195.93461679 271.85961914 193.45483398 C271.73981186 192.30082596 271.62000458 191.14681793 271.49656677 189.95783997 C271.38297318 188.89119614 271.26937958 187.82455231 271.15234375 186.72558594 C271.05400742 185.79124222 270.95567108 184.8568985 270.85435486 183.89424133 C270.55480792 181.66479083 270.11790838 179.56997322 269.51977539 177.40405273 C269.30063477 177.97510742 269.08149414 178.54616211 268.85571289 179.13452148 C266.92210907 184.07857353 264.84379438 188.91301628 262.58227539 193.71655273 C260.08941673 199.05127026 257.93483768 204.44396709 255.86743164 209.95483398 C254.35639208 213.82221929 252.70554746 217.61050139 251.01977539 221.40405273 C248.4368371 227.22066691 246.08100661 233.08230219 243.84008789 239.04077148 C242.03265565 243.64491102 240.04021849 248.16035233 238.01782227 252.67358398 C236.26858594 256.59830733 234.69712971 260.55264784 233.2121582 264.58447266 C232.32493209 266.91610038 231.28402634 269.15434629 230.20727539 271.40405273 C228.06317105 276.04100129 226.22150743 280.73915163 224.45727539 285.52905273 C222.62665839 290.49918944 220.7262855 295.39579109 218.51196289 300.20874023 C217.30705636 302.87471452 216.19618952 305.57383271 215.08227539 308.27905273 C213.49767916 312.11493506 211.84280853 315.89599161 210.08227539 319.65405273 C208.05339417 324.0594428 206.31327193 328.5403106 204.64477539 333.09155273 C202.54202904 338.80439048 200.31125542 344.44118692 197.89477539 350.02905273 C197.47929443 351.00491333 197.47929443 351.00491333 197.05541992 352.00048828 C193.22201957 360.73968784 188.10415487 367.00717544 179.51977539 371.40405273 C172.0065503 374.20309738 163.92796236 374.7161188 156.46508789 371.51342773 C146.78501588 365.99306538 142.5515804 357.93121077 138.79321289 347.80639648 C137.66222509 344.78464687 136.46326728 341.81294295 135.20727539 338.84155273 C133.59214403 335.01461729 132.02456689 331.1725799 130.49633789 327.31030273 C130.13967041 326.40997314 129.78300293 325.50964355 129.41552734 324.58203125 C128.70281986 322.7789793 127.9929415 320.97480606 127.28613281 319.16943359 C126.95718018 318.33806885 126.62822754 317.5067041 126.28930664 316.65014648 C125.99644775 315.90434326 125.70358887 315.15854004 125.40185547 314.39013672 C124.47676871 312.15621845 124.47676871 312.15621845 122.51977539 309.40405273 C121.83804011 307.40913884 121.17326037 305.40839847 120.51977539 303.40405273 C119.62315097 301.27051871 118.70502681 299.14593902 117.76977539 297.02905273 C114.90669239 290.46612192 112.37551196 283.8050789 109.89086914 277.09155273 C106.67115827 268.43227335 103.08549963 259.92516413 99.51977539 251.40405273 C98.25629544 248.36648295 96.99333741 245.32869693 95.73071289 242.29077148 C94.86616885 240.22981003 93.98838243 238.17438307 93.10180664 236.12280273 C91.26788008 231.85159242 89.5505826 227.53529962 87.83227539 223.21655273 C87.12279143 221.4352424 86.41315155 219.65399416 85.70336914 217.87280273 C85.34227051 216.9665918 84.98117187 216.06038086 84.60913086 215.12670898 C83.5570583 212.49723494 82.49534205 209.87189701 81.42993164 207.24780273 C77.16780369 196.72602344 73.19312902 186.14582925 69.51977539 175.40405273 C68.18486296 183.68001017 67.07500731 191.94216154 66.20727539 200.27905273 C64.96276438 211.86276921 63.52054652 223.41378213 62.01977539 234.96655273 C60.46922078 246.91605358 58.96467151 258.86604977 57.61132812 270.83984375 C56.56809209 280.05983406 55.45350419 289.27048037 54.3286438 298.48077393 C53.34711073 306.52059258 52.37941431 314.56166742 51.44555664 322.60717773 C51.31290154 323.74733337 51.31290154 323.74733337 51.17756653 324.91052246 C50.75355664 328.55646645 50.33193666 332.20265708 49.91455078 335.84936523 C46.76462582 363.1592023 46.76462582 363.1592023 40.20727539 369.71655273 C34.67334614 373.19134552 28.90467461 373.70101976 22.50830078 373.67871094 C21.73984329 373.68382187 20.9713858 373.6889328 20.17964172 373.69419861 C17.6588241 373.70801122 15.13828243 373.70714427 12.61743164 373.70483398 C10.85298055 373.70872528 9.08853039 373.71306084 7.32408142 373.71781921 C3.63317828 373.72526335 -0.05762917 373.72500312 -3.74853516 373.71972656 C-8.4637575 373.71393203 -13.17858703 373.73087127 -17.89374447 373.75407124 C-21.53559129 373.76884636 -25.17734429 373.76967518 -28.81921577 373.76656151 C-30.55704082 373.76707274 -32.29487139 373.77227314 -34.03266716 373.78237343 C-36.46848527 373.79479531 -38.90354824 373.78791251 -41.33935547 373.77636719 C-42.04765503 373.78401093 -42.75595459 373.79165466 -43.48571777 373.79953003 C-49.35733417 373.73842539 -54.97664373 372.53708464 -59.53881836 368.65014648 C-59.99385742 368.05331055 -60.44889648 367.45647461 -60.91772461 366.84155273 C-61.39081055 366.24213867 -61.86389648 365.64272461 -62.35131836 365.02514648 C-68.1522617 356.69507214 -63.88253894 341.94886884 -62.60522461 332.40405273 C-62.42872977 331.03174849 -62.25294634 329.65935256 -62.07788086 328.28686523 C-61.27680913 322.06837467 -60.41150654 315.86382207 -59.43725586 309.66967773 C-58.47310071 303.51348082 -57.72970985 297.34657536 -57.04272461 291.15405273 C-56.78533937 288.88447299 -56.52751494 286.61494302 -56.26928711 284.34545898 C-56.13941406 283.19964355 -56.00954102 282.05382812 -55.87573242 280.87329102 C-52.86271925 254.44432976 -52.86271925 254.44432976 -51.48022461 245.96655273 C-50.31745082 238.77069852 -49.54474757 231.53232899 -48.72412109 224.29125977 C-47.70440176 215.3029019 -46.63649386 206.32112636 -45.54272461 197.34155273 C-45.45863342 196.65099792 -45.37454224 195.96044312 -45.28790283 195.2489624 C-44.94405944 192.42594348 -44.60013734 189.60293422 -44.25585938 186.77996826 C-43.65776492 181.87269613 -43.06559728 176.96473434 -42.47631836 172.05639648 C-40.41560585 154.90840571 -38.25990494 137.77491616 -36.03198242 120.64770508 C-32.13960362 90.8189585 -32.13960362 90.8189585 -28.57592773 60.94970703 C-27.65048755 52.80700981 -26.68278206 44.6700908 -25.67996216 36.53659058 C-25.50808976 35.13890971 -25.33753014 33.74106665 -25.16842651 32.3430481 C-22.30583287 8.71182915 -22.30583287 8.71182915 -16.48022461 3.40405273 C-10.8608105 0.42435746 -6.29758023 -0.03296699 0 0 Z " fill="#FEFEFE" transform="translate(229.480224609375,308.595947265625)"/>
<path d="M0 0 C0.9734285 -0.00525696 1.94685699 -0.01051392 2.94978333 -0.01593018 C6.14702708 -0.02906494 9.34376737 -0.02041508 12.54101562 -0.01025391 C14.77486262 -0.01227651 17.00870897 -0.0151895 19.24255371 -0.01895142 C23.91616118 -0.02336594 28.58959622 -0.01697165 33.26318359 -0.00292969 C39.24173459 0.01416148 45.21988148 0.00431565 51.19841766 -0.01364708 C55.80876691 -0.02450836 60.41902099 -0.02102778 65.02937317 -0.0132637 C67.23330229 -0.01126819 69.43724016 -0.01369809 71.64115906 -0.02070236 C74.72584796 -0.02835532 77.80989027 -0.01665847 80.89453125 0 C81.79762527 -0.00607269 82.7007193 -0.01214539 83.63117981 -0.0184021 C90.02823999 0.04531855 95.95412666 0.83805191 101.00585938 5.14208984 C101.46089844 5.73892578 101.9159375 6.33576172 102.38476562 6.95068359 C102.85785156 7.55009766 103.3309375 8.14951172 103.81835938 8.76708984 C106.14615159 12.10976724 106.08248346 14.43214928 106.10548401 18.48596191 C106.11527409 19.79403305 106.12506416 21.10210419 106.13515091 22.44981384 C106.14106302 23.91429607 106.14687163 25.37877872 106.15258789 26.84326172 C106.16216729 28.3868485 106.17216655 29.93043272 106.18255234 31.47401428 C106.20981299 35.723737 106.23074078 39.97347098 106.25053811 44.22323418 C106.26821291 47.85165253 106.2894738 51.48004617 106.31078833 55.10844469 C106.38064811 67.00183065 106.43873204 78.89526223 106.49495888 90.78871918 C106.51461323 94.90292156 106.53506741 99.01711979 106.55555642 103.13131809 C106.70339086 132.83428888 106.82639669 162.53732703 106.93560886 192.24046326 C106.94716388 195.36070831 106.95894966 198.48095241 106.97081757 201.60119629 C107.05908666 224.83682306 107.13524274 248.07239907 107.17026997 271.30817413 C107.17298799 273.10868836 107.17571007 274.90920258 107.17843628 276.7097168 C107.18042932 278.03641018 107.18042932 278.03641018 107.18246263 279.38990545 C107.19251839 285.61225745 107.2101721 291.8345603 107.23098755 298.05688477 C107.25609957 305.61116857 107.27061784 313.16537981 107.27110428 320.71970701 C107.27158863 324.55233654 107.27673998 328.38480174 107.29486656 332.21739197 C107.31422941 336.35385481 107.31018044 340.48996186 107.30371094 344.62646484 C107.31292855 345.82902672 107.32214617 347.03158859 107.3316431 348.27059174 C107.29201776 356.14903647 106.38688785 361.97605244 101.19726562 368.20068359 C100.74867188 368.76400391 100.30007813 369.32732422 99.83789062 369.90771484 C94.52582026 374.06737325 87.51445216 373.68519011 81.09985352 373.67871094 C80.13632462 373.68542816 79.17279572 373.69214539 78.18006897 373.69906616 C75.00996682 373.71799064 71.84007692 373.72196727 68.66992188 373.72412109 C66.45706598 373.73055178 64.24421094 373.73728035 62.03135681 373.74429321 C57.39889555 373.75625131 52.7665088 373.75997543 48.1340332 373.75878906 C42.20808286 373.75858571 36.2826112 373.78591157 30.35677433 373.82033348 C25.78846556 373.84260398 21.22027209 373.84662658 16.6519146 373.84556961 C14.46750676 373.84792442 12.28309569 373.8567411 10.09874153 373.87223434 C7.04017976 373.89190121 3.98265184 373.88605359 0.92407227 373.87402344 C0.02875793 373.88526245 -0.8665564 373.89650146 -1.78900146 373.90808105 C-7.90157671 373.84720196 -11.76634925 372.47196997 -17.05273438 369.38818359 C-17.05273438 368.72818359 -17.05273438 368.06818359 -17.05273438 367.38818359 C-17.98085938 367.07880859 -17.98085938 367.07880859 -18.92773438 366.76318359 C-22.04214143 364.74797903 -22.16276545 362.98780939 -23.05273438 359.38818359 C-23.33807064 355.85656521 -23.333124 352.33806593 -23.32397461 348.79638672 C-23.32920135 347.74200912 -23.3344281 346.68763153 -23.33981323 345.6013031 C-23.35003441 343.31783024 -23.35583035 341.03433421 -23.35769463 338.75083923 C-23.36136197 335.1360692 -23.37809822 331.52157258 -23.39845276 327.90686035 C-23.4538361 317.63164346 -23.48457541 307.35638682 -23.5090332 297.08105469 C-23.52490614 290.79115589 -23.5551196 284.50145235 -23.59379768 278.21165466 C-23.60544675 275.81630017 -23.61137802 273.42091077 -23.61147881 271.02552795 C-23.61167082 267.67680455 -23.62993452 264.32862017 -23.65209961 260.97998047 C-23.64752243 259.99174789 -23.64294525 259.00351532 -23.63822937 257.9853363 C-23.69301608 252.77959848 -23.88395382 248.75457238 -27.05273438 244.38818359 C-30.57462508 242.33783073 -33.7051053 242.1345392 -37.72924805 242.11694336 C-38.84357712 242.10675674 -39.95790619 242.09657013 -41.10600281 242.08607483 C-42.89527946 242.08286476 -42.89527946 242.08286476 -44.72070312 242.07958984 C-47.24739831 242.054447 -49.77409097 242.02904875 -52.30078125 242.00341797 C-56.28408479 241.97457667 -60.26737011 241.95033131 -64.25073242 241.93188477 C-68.09511121 241.91033901 -71.93899391 241.87092678 -75.78320312 241.82958984 C-76.98212692 241.82947403 -78.18105072 241.82935822 -79.41630554 241.82923889 C-81.07361443 241.80923073 -81.07361443 241.80923073 -82.7644043 241.78881836 C-84.2273719 241.78121239 -84.2273719 241.78121239 -85.71989441 241.77345276 C-86.4897316 241.64631393 -87.25956879 241.51917511 -88.05273438 241.38818359 C-90.27372558 238.05669678 -90.47079771 236.37842136 -90.87475586 232.44921875 C-91.00506699 231.22167877 -91.13537811 229.99413879 -91.26963806 228.72940063 C-91.40453056 227.37869867 -91.53925567 226.02797998 -91.67382812 224.67724609 C-91.82000106 223.27119536 -91.96691144 221.86522111 -92.11451721 220.45932007 C-92.50375358 216.73276656 -92.88298002 213.00525914 -93.26013184 209.27746582 C-93.63369125 205.6015223 -94.01636501 201.92653154 -94.3984375 198.25146484 C-94.99897921 192.46596432 -95.59233308 186.67977084 -96.18115234 180.89306641 C-96.75446804 175.26064071 -97.34299004 169.63003969 -97.94384766 164.00048828 C-98.0855451 162.66434678 -98.22715359 161.32819585 -98.3686676 159.99203491 C-98.63199433 157.51209083 -98.89804245 155.03243358 -99.16734314 152.5531311 C-99.73983695 147.1334573 -100.2137953 141.83864295 -100.05273438 136.38818359 C-96.62993669 135.3465426 -93.49470689 135.26372466 -89.92651367 135.26220703 C-88.06889656 135.25649689 -88.06889656 135.25649689 -86.17375183 135.25067139 C-85.51463491 135.25047752 -84.855518 135.25028366 -84.17642784 135.25008392 C-81.39049116 135.24665114 -78.60478427 135.22526687 -75.81892872 135.20485306 C-70.6384503 135.16693143 -65.4582212 135.13556558 -60.27758789 135.13769531 C-56.66756439 135.13848503 -53.05838915 135.11501265 -49.44858742 135.07581329 C-48.07840609 135.06539312 -46.70812638 135.06379989 -45.33792686 135.07146454 C-36.65430667 135.29068945 -36.65430667 135.29068945 -28.7824707 132.15869141 C-24.95229314 128.27130611 -23.80154665 124.95369529 -23.8079071 119.55082703 C-23.80396942 118.60471558 -23.80003174 117.65860413 -23.79597473 116.68382263 C-23.80166977 115.65773392 -23.80736481 114.6316452 -23.81323242 113.57446289 C-23.81121826 112.48442963 -23.8092041 111.39439636 -23.80712891 110.27133179 C-23.80358603 107.90652915 -23.80434725 105.54171703 -23.80890465 103.17691612 C-23.81449935 99.43145714 -23.80533604 95.68630767 -23.79170227 91.94087219 C-23.75458148 81.29250178 -23.73575669 70.64427284 -23.74731445 59.99584961 C-23.7542122 53.48011658 -23.73487661 46.96472616 -23.70142555 40.4490757 C-23.6934788 37.96884184 -23.69473859 35.48856048 -23.70545006 33.00833702 C-23.71980345 29.53510763 -23.70347657 26.06324233 -23.68041992 22.59008789 C-23.69807152 21.06006386 -23.69807152 21.06006386 -23.71607971 19.49913025 C-23.63260251 13.07145355 -22.73135502 8.07253661 -18.05273438 3.38818359 C-12.58475963 -0.16443136 -6.3117451 -0.04244219 0 0 Z " fill="#FED500" transform="translate(705.052734375,308.61181640625)"/>
<path d="M0 0 C5.28 0.33 10.56 0.66 16 1 C18.4549014 18.95047475 20.47107159 36.9395763 22.39263916 54.95306396 C22.70455988 57.86866652 23.01990405 60.78389482 23.33524513 63.6991291 C23.64388804 66.55604253 23.95056837 69.41316407 24.25666428 72.27035141 C24.46894258 74.24927719 24.68264128 76.22805044 24.89639282 78.20681763 C25.73890142 86.12960004 26.43597691 94.05251565 27 102 C24.35409986 102.02684679 21.70846904 102.04676357 19.0625 102.0625 C18.30775391 102.07087891 17.55300781 102.07925781 16.77539062 102.08789062 C14.85005687 102.09652441 12.92464419 102.05224333 11 102 C9.23973186 100.23973186 9.54199181 97.68651487 9.29150391 95.28808594 C9.16111725 94.0603949 9.03073059 92.83270386 8.89639282 91.56781006 C8.75635805 90.20667443 8.61641739 88.84552912 8.4765625 87.484375 C8.32861514 86.07550141 8.1802827 84.66666821 8.03158569 83.25787354 C7.63756054 79.51452133 7.24888542 75.77063163 6.86126709 72.02661133 C6.47843295 68.33771613 6.09057898 64.6493498 5.703125 60.9609375 C5.01862025 54.43866884 4.34065296 47.91574059 3.66524124 41.39252472 C3.22435696 37.1411877 2.77747101 32.89053714 2.32495308 28.64042282 C2.10882035 26.60903881 1.8939626 24.57752411 1.67953491 22.54595947 C1.41618931 20.05396244 1.15056139 17.56220514 0.88223267 15.07073975 C0.76560272 13.96103821 0.64897278 12.85133667 0.52880859 11.70800781 C0.4261972 10.74566223 0.32358582 9.78331665 0.21786499 8.79180908 C-0.01020789 5.86919197 0 2.93150269 0 0 Z " fill="#D09801" transform="translate(605,446)"/>
<path d="M0 0 C1.89492188 0.01353516 1.89492188 0.01353516 3.828125 0.02734375 C4.79234375 0.03894531 5.7565625 0.05054688 6.75 0.0625 C5.76 0.5575 5.76 0.5575 4.75 1.0625 C4.75 1.7225 4.75 2.3825 4.75 3.0625 C-0.2 3.0625 -5.15 3.0625 -10.25 3.0625 C-10.58 2.4025 -10.91 1.7425 -11.25 1.0625 C-7.49600202 -0.1414337 -3.91782588 -0.03627617 0 0 Z " fill="#F8BF11" transform="translate(616.25,443.9375)"/>
</svg>